<svg width="92" height="79" viewBox="0 0 92 79" fill="none" xmlns="http://www.w3.org/2000/svg">
<rect width="92" height="79" fill="#0D0D0D"/>
<rect x="8.5" y="8.3125" width="75" height="31" stroke="#464646"/>
<path d="M13.932 33.8125V13.6245H17.488L25.048 25.6925C25.664 26.6632 26.1493 27.4845 26.504 28.1565C26.8587 28.8098 27.036 29.1365 27.036 29.1365C27.036 29.1365 27.008 28.7632 26.952 28.0165C26.9147 27.2698 26.896 26.3178 26.896 25.1605V13.6245H30.144V33.8125H26.588L19.028 21.7725C18.4307 20.7832 17.9453 19.9618 17.572 19.3085C17.2173 18.6552 17.04 18.3285 17.04 18.3285C17.04 18.3285 17.0587 18.7018 17.096 19.4485C17.152 20.1952 17.18 21.1472 17.18 22.3045V33.8125H13.932ZM35.7156 27.2605C35.8462 28.5858 36.2849 29.6125 37.0316 30.3405C37.7969 31.0685 38.7676 31.4325 39.9436 31.4325C40.8396 31.4325 41.6142 31.2365 42.2676 30.8445C42.9209 30.4338 43.3316 29.8552 43.4996 29.1085H46.4956C46.2529 30.6952 45.5156 31.9178 44.2836 32.7765C43.0702 33.6165 41.5956 34.0365 39.8596 34.0365C38.3289 34.0365 37.0316 33.6912 35.9676 33.0005C34.9036 32.2912 34.0916 31.3672 33.5316 30.2285C32.9716 29.0712 32.6916 27.8392 32.6916 26.5325C32.6916 25.2258 32.9529 24.0032 33.4756 22.8645C34.0169 21.7258 34.8102 20.8112 35.8556 20.1205C36.9009 19.4112 38.1889 19.0565 39.7196 19.0565C41.2316 19.0565 42.4916 19.3925 43.4996 20.0645C44.5262 20.7178 45.3009 21.5765 45.8236 22.6405C46.3462 23.6858 46.5982 24.8152 46.5796 26.0285C46.5796 26.3085 46.5702 26.5885 46.5516 26.8685C46.5329 27.1298 46.5236 27.2605 46.5236 27.2605H35.7156ZM39.7196 21.4645C38.6929 21.4645 37.8436 21.7632 37.1716 22.3605C36.5182 22.9578 36.0796 23.7885 35.8556 24.8525H43.3036C43.2289 23.8632 42.8836 23.0512 42.2676 22.4165C41.6702 21.7818 40.8209 21.4645 39.7196 21.4645ZM62.0808 19.2805V33.8125H59.0288V31.3485C58.5248 32.1698 57.8528 32.8232 57.0128 33.3085C56.1915 33.7938 55.2582 34.0365 54.2128 34.0365C53.1862 34.0365 52.2808 33.8218 51.4968 33.3925C50.7128 32.9632 50.0968 32.3658 49.6488 31.6005C49.2008 30.8165 48.9768 29.9018 48.9768 28.8565V19.2805H52.0288V28.1845C52.0288 29.0992 52.2995 29.8458 52.8408 30.4245C53.3822 31.0032 54.1195 31.2925 55.0528 31.2925C56.2848 31.2925 57.2555 30.7978 57.9648 29.8085C58.6742 28.8005 59.0288 27.4192 59.0288 25.6645V19.2805H62.0808ZM67.5984 27.2605C67.729 28.5858 68.1677 29.6125 68.9144 30.3405C69.6797 31.0685 70.6504 31.4325 71.8264 31.4325C72.7224 31.4325 73.497 31.2365 74.1504 30.8445C74.8037 30.4338 75.2144 29.8552 75.3824 29.1085H78.3784C78.1357 30.6952 77.3984 31.9178 76.1664 32.7765C74.953 33.6165 73.4784 34.0365 71.7424 34.0365C70.2117 34.0365 68.9144 33.6912 67.8504 33.0005C66.7864 32.2912 65.9744 31.3672 65.4144 30.2285C64.8544 29.0712 64.5744 27.8392 64.5744 26.5325C64.5744 25.2258 64.8357 24.0032 65.3584 22.8645C65.8997 21.7258 66.693 20.8112 67.7384 20.1205C68.7837 19.4112 70.0717 19.0565 71.6024 19.0565C73.1144 19.0565 74.3744 19.3925 75.3824 20.0645C76.409 20.7178 77.1837 21.5765 77.7064 22.6405C78.229 23.6858 78.481 24.8152 78.4624 26.0285C78.4624 26.3085 78.453 26.5885 78.4344 26.8685C78.4157 27.1298 78.4064 27.2605 78.4064 27.2605H67.5984ZM71.6024 21.4645C70.5757 21.4645 69.7264 21.7632 69.0544 22.3605C68.401 22.9578 67.9624 23.7885 67.7384 24.8525H75.1864C75.1117 23.8632 74.7664 23.0512 74.1504 22.4165C73.553 21.7818 72.7037 21.4645 71.6024 21.4645Z" fill="white"/>
<mask id="path-3-inside-1_5069_405" fill="white">
<path d="M8 39.1875H84V71.1875H8V39.1875Z"/>
</mask>
<path d="M84 71.1875V72.1875H85V71.1875H84ZM8 71.1875H7V72.1875H8V71.1875ZM84 39.1875H83V71.1875H84H85V39.1875H84ZM84 71.1875V70.1875H8V71.1875V72.1875H84V71.1875ZM8 71.1875H9V39.1875H8H7V71.1875H8Z" fill="#464646" mask="url(#path-3-inside-1_5069_405)"/>
<path d="M13.932 65.1875V44.9995H21.492C23.3773 44.9995 24.8893 45.4475 26.028 46.3435C27.1667 47.2208 27.736 48.4995 27.736 50.1795C27.736 51.0942 27.5027 51.8968 27.036 52.5875C26.5693 53.2782 25.9533 53.7915 25.188 54.1275C26.2333 54.5195 27.0733 55.1448 27.708 56.0035C28.3427 56.8622 28.66 57.9448 28.66 59.2515C28.66 61.1742 28.044 62.6488 26.812 63.6755C25.5987 64.6835 23.9373 65.1875 21.828 65.1875H13.932ZM21.268 62.3035C23.9933 62.3035 25.356 61.2395 25.356 59.1115C25.356 58.0662 25.0107 57.2728 24.32 56.7315C23.648 56.1715 22.6307 55.8915 21.268 55.8915H17.18V62.3035H21.268ZM21.128 53.0635C22.2293 53.0635 23.06 52.8395 23.62 52.3915C24.18 51.9248 24.46 51.2622 24.46 50.4035C24.46 49.5448 24.1707 48.8822 23.592 48.4155C23.032 47.9488 22.2013 47.7155 21.1 47.7155H17.18V53.0635H21.128ZM44.1707 50.6555V65.1875H41.1187V62.7235C40.6147 63.5448 39.9427 64.1982 39.1027 64.6835C38.2814 65.1688 37.348 65.4115 36.3027 65.4115C35.276 65.4115 34.3707 65.1968 33.5867 64.7675C32.8027 64.3382 32.1867 63.7408 31.7387 62.9755C31.2907 62.1915 31.0667 61.2768 31.0667 60.2315V50.6555H34.1187V59.5595C34.1187 60.4742 34.3894 61.2208 34.9307 61.7995C35.472 62.3782 36.2094 62.6675 37.1427 62.6675C38.3747 62.6675 39.3454 62.1728 40.0547 61.1835C40.764 60.1755 41.1187 58.7942 41.1187 57.0395V50.6555H44.1707ZM33.4747 48.3595V45.0555H36.4147V48.3595H33.4747ZM38.8787 48.3595V45.0555H41.8187V48.3595H38.8787ZM56.0722 53.4275C55.8856 53.3902 55.6709 53.3528 55.4282 53.3155C55.1856 53.2782 54.9149 53.2595 54.6162 53.2595C53.9069 53.2595 53.2349 53.4835 52.6002 53.9315C51.9842 54.3795 51.4802 55.0888 51.0882 56.0595C50.7149 57.0115 50.5282 58.2435 50.5282 59.7555V65.1875H47.4762V50.6555H50.5282V53.4275C50.7522 52.8488 51.0976 52.3355 51.5642 51.8875C52.0496 51.4395 52.5909 51.0848 53.1882 50.8235C53.7856 50.5622 54.3922 50.4315 55.0082 50.4315C55.2696 50.4315 55.4749 50.4408 55.6242 50.4595C55.7922 50.4595 55.9416 50.4782 56.0722 50.5155V53.4275ZM63.7613 65.4115C62.3426 65.4115 61.0826 65.0942 59.9813 64.4595C58.8799 63.8062 58.0119 62.9102 57.3773 61.7715C56.7613 60.6328 56.4533 59.3448 56.4533 57.9075C56.4533 56.4702 56.7613 55.1915 57.3773 54.0715C58.0119 52.9328 58.8799 52.0462 59.9813 51.4115C61.0826 50.7582 62.3426 50.4315 63.7613 50.4315C65.1613 50.4315 66.4119 50.7582 67.5133 51.4115C68.6146 52.0462 69.4826 52.9235 70.1173 54.0435C70.7519 55.1635 71.0693 56.4515 71.0693 57.9075C71.0693 59.3635 70.7519 60.6608 70.1173 61.7995C69.4826 62.9195 68.6146 63.8062 67.5133 64.4595C66.4119 65.0942 65.1613 65.4115 63.7613 65.4115ZM63.7613 62.7515C64.5826 62.7515 65.3013 62.5462 65.9173 62.1355C66.5519 61.7248 67.0466 61.1555 67.4013 60.4275C67.7559 59.6808 67.9333 58.8408 67.9333 57.9075C67.9333 56.9555 67.7559 56.1248 67.4013 55.4155C67.0466 54.6875 66.5519 54.1182 65.9173 53.7075C65.3013 53.2968 64.5826 53.0915 63.7613 53.0915C62.4919 53.0915 61.4746 53.5488 60.7093 54.4635C59.9439 55.3595 59.5613 56.5075 59.5613 57.9075C59.5613 59.3262 59.9439 60.4928 60.7093 61.4075C61.4746 62.3035 62.4919 62.7515 63.7613 62.7515Z" fill="#C94740"/>
</svg>
