<svg width="76" height="64" viewBox="0 0 76 64" fill="none" xmlns="http://www.w3.org/2000/svg">
<rect x="0.5" y="0.5" width="75" height="31" stroke="#464646"/>
<path d="M5.932 26V5.812H9.488L17.048 17.88C17.664 18.8507 18.1493 19.672 18.504 20.344C18.8587 20.9973 19.036 21.324 19.036 21.324C19.036 21.324 19.008 20.9507 18.952 20.204C18.9147 19.4573 18.896 18.5053 18.896 17.348V5.812H22.144V26H18.588L11.028 13.96C10.4307 12.9707 9.94533 12.1493 9.572 11.496C9.21733 10.8427 9.04 10.516 9.04 10.516C9.04 10.516 9.05867 10.8893 9.096 11.636C9.152 12.3827 9.18 13.3347 9.18 14.492V26H5.932ZM27.7156 19.448C27.8462 20.7733 28.2849 21.8 29.0316 22.528C29.7969 23.256 30.7676 23.62 31.9436 23.62C32.8396 23.62 33.6142 23.424 34.2676 23.032C34.9209 22.6213 35.3316 22.0427 35.4996 21.296H38.4956C38.2529 22.8827 37.5156 24.1053 36.2836 24.964C35.0702 25.804 33.5956 26.224 31.8596 26.224C30.3289 26.224 29.0316 25.8787 27.9676 25.188C26.9036 24.4787 26.0916 23.5547 25.5316 22.416C24.9716 21.2587 24.6916 20.0267 24.6916 18.72C24.6916 17.4133 24.9529 16.1907 25.4756 15.052C26.0169 13.9133 26.8102 12.9987 27.8556 12.308C28.9009 11.5987 30.1889 11.244 31.7196 11.244C33.2316 11.244 34.4916 11.58 35.4996 12.252C36.5262 12.9053 37.3009 13.764 37.8236 14.828C38.3462 15.8733 38.5982 17.0027 38.5796 18.216C38.5796 18.496 38.5702 18.776 38.5516 19.056C38.5329 19.3173 38.5236 19.448 38.5236 19.448H27.7156ZM31.7196 13.652C30.6929 13.652 29.8436 13.9507 29.1716 14.548C28.5182 15.1453 28.0796 15.976 27.8556 17.04H35.3036C35.2289 16.0507 34.8836 15.2387 34.2676 14.604C33.6702 13.9693 32.8209 13.652 31.7196 13.652ZM54.0808 11.468V26H51.0288V23.536C50.5248 24.3573 49.8528 25.0107 49.0128 25.496C48.1915 25.9813 47.2582 26.224 46.2128 26.224C45.1862 26.224 44.2808 26.0093 43.4968 25.58C42.7128 25.1507 42.0968 24.5533 41.6488 23.788C41.2008 23.004 40.9768 22.0893 40.9768 21.044V11.468H44.0288V20.372C44.0288 21.2867 44.2995 22.0333 44.8408 22.612C45.3822 23.1907 46.1195 23.48 47.0528 23.48C48.2848 23.48 49.2555 22.9853 49.9648 21.996C50.6742 20.988 51.0288 19.6067 51.0288 17.852V11.468H54.0808ZM59.5984 19.448C59.729 20.7733 60.1677 21.8 60.9144 22.528C61.6797 23.256 62.6504 23.62 63.8264 23.62C64.7224 23.62 65.497 23.424 66.1504 23.032C66.8037 22.6213 67.2144 22.0427 67.3824 21.296H70.3784C70.1357 22.8827 69.3984 24.1053 68.1664 24.964C66.953 25.804 65.4784 26.224 63.7424 26.224C62.2117 26.224 60.9144 25.8787 59.8504 25.188C58.7864 24.4787 57.9744 23.5547 57.4144 22.416C56.8544 21.2587 56.5744 20.0267 56.5744 18.72C56.5744 17.4133 56.8357 16.1907 57.3584 15.052C57.8997 13.9133 58.693 12.9987 59.7384 12.308C60.7837 11.5987 62.0717 11.244 63.6024 11.244C65.1144 11.244 66.3744 11.58 67.3824 12.252C68.409 12.9053 69.1837 13.764 69.7064 14.828C70.229 15.8733 70.481 17.0027 70.4624 18.216C70.4624 18.496 70.453 18.776 70.4344 19.056C70.4157 19.3173 70.4064 19.448 70.4064 19.448H59.5984ZM63.6024 13.652C62.5757 13.652 61.7264 13.9507 61.0544 14.548C60.401 15.1453 59.9624 15.976 59.7384 17.04H67.1864C67.1117 16.0507 66.7664 15.2387 66.1504 14.604C65.553 13.9693 64.7037 13.652 63.6024 13.652Z" fill="white"/>
<mask id="path-3-inside-1_5069_573" fill="white">
<path d="M0 31.375H76V63.375H0V31.375Z"/>
</mask>
<path d="M76 63.375V64.375H77V63.375H76ZM0 63.375H-1V64.375H0V63.375ZM76 31.375H75V63.375H76H77V31.375H76ZM76 63.375V62.375H0V63.375V64.375H76V63.375ZM0 63.375H1V31.375H0H-1V63.375H0Z" fill="#464646" mask="url(#path-3-inside-1_5069_573)"/>
<path d="M5.932 57.375V37.187H13.492C15.3773 37.187 16.8893 37.635 18.028 38.531C19.1667 39.4083 19.736 40.687 19.736 42.367C19.736 43.2817 19.5027 44.0843 19.036 44.775C18.5693 45.4657 17.9533 45.979 17.188 46.315C18.2333 46.707 19.0733 47.3323 19.708 48.191C20.3427 49.0497 20.66 50.1323 20.66 51.439C20.66 53.3617 20.044 54.8363 18.812 55.863C17.5987 56.871 15.9373 57.375 13.828 57.375H5.932ZM13.268 54.491C15.9933 54.491 17.356 53.427 17.356 51.299C17.356 50.2537 17.0107 49.4603 16.32 48.919C15.648 48.359 14.6307 48.079 13.268 48.079H9.18V54.491H13.268ZM13.128 45.251C14.2293 45.251 15.06 45.027 15.62 44.579C16.18 44.1123 16.46 43.4497 16.46 42.591C16.46 41.7323 16.1707 41.0697 15.592 40.603C15.032 40.1363 14.2013 39.903 13.1 39.903H9.18V45.251H13.128ZM36.1707 42.843V57.375H33.1187V54.911C32.6147 55.7323 31.9427 56.3857 31.1027 56.871C30.2814 57.3563 29.348 57.599 28.3027 57.599C27.276 57.599 26.3707 57.3843 25.5867 56.955C24.8027 56.5257 24.1867 55.9283 23.7387 55.163C23.2907 54.379 23.0667 53.4643 23.0667 52.419V42.843H26.1187V51.747C26.1187 52.6617 26.3894 53.4083 26.9307 53.987C27.472 54.5657 28.2094 54.855 29.1427 54.855C30.3747 54.855 31.3454 54.3603 32.0547 53.371C32.764 52.363 33.1187 50.9817 33.1187 49.227V42.843H36.1707ZM25.4747 40.547V37.243H28.4147V40.547H25.4747ZM30.8787 40.547V37.243H33.8187V40.547H30.8787ZM48.0722 45.615C47.8856 45.5777 47.6709 45.5403 47.4282 45.503C47.1856 45.4657 46.9149 45.447 46.6162 45.447C45.9069 45.447 45.2349 45.671 44.6002 46.119C43.9842 46.567 43.4802 47.2763 43.0882 48.247C42.7149 49.199 42.5282 50.431 42.5282 51.943V57.375H39.4762V42.843H42.5282V45.615C42.7522 45.0363 43.0976 44.523 43.5642 44.075C44.0496 43.627 44.5909 43.2723 45.1882 43.011C45.7856 42.7497 46.3922 42.619 47.0082 42.619C47.2696 42.619 47.4749 42.6283 47.6242 42.647C47.7922 42.647 47.9416 42.6657 48.0722 42.703V45.615ZM55.7613 57.599C54.3426 57.599 53.0826 57.2817 51.9813 56.647C50.8799 55.9937 50.0119 55.0977 49.3773 53.959C48.7613 52.8203 48.4533 51.5323 48.4533 50.095C48.4533 48.6577 48.7613 47.379 49.3773 46.259C50.0119 45.1203 50.8799 44.2337 51.9813 43.599C53.0826 42.9457 54.3426 42.619 55.7613 42.619C57.1613 42.619 58.4119 42.9457 59.5133 43.599C60.6146 44.2337 61.4826 45.111 62.1173 46.231C62.7519 47.351 63.0693 48.639 63.0693 50.095C63.0693 51.551 62.7519 52.8483 62.1173 53.987C61.4826 55.107 60.6146 55.9937 59.5133 56.647C58.4119 57.2817 57.1613 57.599 55.7613 57.599ZM55.7613 54.939C56.5826 54.939 57.3013 54.7337 57.9173 54.323C58.5519 53.9123 59.0466 53.343 59.4013 52.615C59.7559 51.8683 59.9333 51.0283 59.9333 50.095C59.9333 49.143 59.7559 48.3123 59.4013 47.603C59.0466 46.875 58.5519 46.3057 57.9173 45.895C57.3013 45.4843 56.5826 45.279 55.7613 45.279C54.4919 45.279 53.4746 45.7363 52.7093 46.651C51.9439 47.547 51.5613 48.695 51.5613 50.095C51.5613 51.5137 51.9439 52.6803 52.7093 53.595C53.4746 54.491 54.4919 54.939 55.7613 54.939Z" fill="#C94740"/>
</svg>
